<?xml version="1.0" encoding="iso-8859-1"?>
<!-- Generator: Adobe Illustrator 17.1.0, SVG Export Plug-In . SVG Version: 6.00 Build 0)  -->
<!DOCTYPE svg PUBLIC "-//W3C//DTD SVG 1.1//EN" "http://www.w3.org/Graphics/SVG/1.1/DTD/svg11.dtd">
<svg height="2em" width="2em" version="1.1" id="Capa_1" xmlns="http://www.w3.org/2000/svg" xmlns:xlink="http://www.w3.org/1999/xlink" x="0px" y="0px"
	 viewBox="0 0 348 348" style="enable-background:new 0 0 348 348;" xml:space="preserve">
<path d="M339.11,83.031L270,121.773V87c0-9.374-7.626-17-17-17H17C7.626,70,0,77.626,0,87v174c0,9.374,7.626,17,17,17h236
	c9.374,0,17-7.626,17-17v-33.948l69.11,38.753c4.797,2.69,8.89,0.392,8.89-5.108V88.14C348,82.64,343.907,80.341,339.11,83.031z
	 M186.723,185.882l-75.4,51.995C106.796,241,103,239.056,103,233.556V126.851c0-5.5,3.796-7.445,8.323-4.322l75.423,51.996
	C191.273,177.648,191.25,182.759,186.723,185.882z" stroke="white" fill="white"
       fill-opacity="0.5" stroke-opacity="0.8"/>
<g>
</g>
<g>
</g>
<g>
</g>
<g>
</g>
<g>
</g>
<g>
</g>
<g>
</g>
<g>
</g>
<g>
</g>
<g>
</g>
<g>
</g>
<g>
</g>
<g>
</g>
<g>
</g>
<g>
</g>
</svg>
